<?xml version="1.0" encoding="utf-8"?>
<!-- Generator: Adobe Illustrator 26.0.1, SVG Export Plug-In . SVG Version: 6.00 Build 0)  -->
<svg version="1.1" id="Layer_2" xmlns="http://www.w3.org/2000/svg" xmlns:xlink="http://www.w3.org/1999/xlink" x="0px" y="0px"
	 width="3000px" height="1311px" viewBox="0 0 3000 1311" style="enable-background:new 0 0 3000 1311;" xml:space="preserve">
<style type="text/css">
	.st0{fill:#07397B;}
	.st1{fill:url(#SVGID_1_);}
	.st2{fill:#FFFFFF;}
	.st3{fill:url(#SVGID_00000176014370744133474300000011899459567724389053_);}
	.st4{fill:url(#SVGID_00000150071595701761064260000011804146545355314604_);}
	.st5{fill:url(#SVGID_00000124121301002574062720000009714950844915314872_);}
	.st6{fill:url(#SVGID_00000027566619645257730680000004761762121726388907_);}
	.st7{fill:url(#SVGID_00000003784381581715597240000004101877477959891101_);}
</style>
<path class="st0" d="M2993.8,604.8C2973,497.9,2870.5,447,2824.2,435c-51.5-13.3-107.1-9.3-155.9,11.6
	c-23.7,10.2-55.3,28.1-74.5,45.4c-20.4-19.6-66-46.4-117.7-46.4c-45.4,2.1-231.1,23.7-278.8,49c-26.2-46.1-67.2-97.8-116.9-101.5
	c-23.3-1.8-46,7.6-60,26.6c-19.5,26.6-18,62.5-11.9,101.9c-70.9-71-230.1-75.6-331.4-76.4c-96.3-0.6-222,24.2-257.5,43.7
	c18.1-10.9,87.6-51.3,130.8-110.4c43.7,6.9,93.6-16.4,118.6-52.5c27.2-39.4,28.5-92.4,6.7-134.5c-17.9-34.8-50.8-61.2-88.4-71.7
	c-40.4-11.4-85.3-3.3-118,23.4c-4.8-44.8-36.8-83-78.1-99.5c-44.2-17.7-96.8-11.3-134.5,18.2c-20.3,15.9-36,37.9-43,62.8
	c-8.1,29.1-3.9,60.9,10.9,87.1c-0.1,0.1-0.2,0.4-0.4,0.5c-37.8,33.5-71.5,83.7-68,136.5c-89.6-89-195.2-159.7-293.2-210.4
	C763.4,87,573.2,8.2,377.1,3.8c-57.8-1.3-186.2,4-244.5,21.5C8,62.7-4.1,153.2,9.2,192.5c15.1,44.1,66.6,61.3,132.7,49.9
	c24.5-4.3,49.9-24.7,55.8-56.5c96.2-5.6,207.1,2.3,313.3,31c-24.5,65.5-40.3,150.8-49,248.1c-53.7,11.5-118.5,30.1-168,54.3
	c-44.2,21.7-92.9,52.9-110,101.7c-18.5,52.3,12.1,103.5,44.4,142.9c34.3,41.5,117.9,119.5,231.6,174.2c4.7,28.1,17.4,86.7,77.2,106
	c41.2,13.3,93.9,3.9,123.9-39.5c37.8,8.7,107.8,13.2,150.3,13.7l0.1,59.2c0,73.4,59.7,133.6,133.2,133.6h1501.5
	c18.8,39.3,57.2,86,101.1,94.7c78.9,15.5,88.4-57.8,92.5-80.9c4.4-24.2,8.1-48.5,15.8-72l57.8-193.5c50.4-7.7,107.7-31.5,148.6-61.3
	c40-29.3,74.8-66,100.1-108.6C2994.9,734.1,3009.2,668.4,2993.8,604.8"/>
<g>
	<linearGradient id="SVGID_1_" gradientUnits="userSpaceOnUse" x1="658.4444" y1="60.272" x2="658.4444" y2="995.3775">
		<stop  offset="0" style="stop-color:#FFFFFF"/>
		<stop  offset="0.2293" style="stop-color:#FDFFFF"/>
		<stop  offset="0.3119" style="stop-color:#F6FFFD"/>
		<stop  offset="0.3708" style="stop-color:#EBFFFA"/>
		<stop  offset="0.4185" style="stop-color:#DAFFF6"/>
		<stop  offset="0.4593" style="stop-color:#C4FFF1"/>
		<stop  offset="0.4954" style="stop-color:#A8FFEA"/>
		<stop  offset="0.5281" style="stop-color:#88FFE2"/>
		<stop  offset="0.5571" style="stop-color:#64FFD9"/>
		<stop  offset="0.5801" style="stop-color:#41FFD1"/>
	</linearGradient>
	<path class="st1" d="M1257,646.7c-0.6-245.4-495.8-598.2-926.7-586.1c-93.9,2.6-172.8,12.6-209.9,28.3
		c-31.5,13.8-60.5,47.2-60.5,74.5c-0.6,26.1,29.9,28.3,48.3,28.1c18.5,0,35.4-1.6,35.2-12.4c0-15.3-24.6-12.1-24.6-27.4
		c0-17.7,95.1-21.8,142.6-22c407.4-1.1,876.8,281.1,877.5,520.5c0.5,186-241.7,227.8-375.1,228.1c-47.5,0.1-93.5-4.9-137.3-13.3
		c-2-59.2-5.5-183.6-7-262.2c15.4-0.2,29.7-0.4,42.1-0.4c99-0.4,228.6,34.6,228.9,57.8c0,19.7-34.4,33.3-34.4,52.1
		c0.1,14.1,31.9,11.6,59.6,13.5c4.8,0.5,60.7-30.6,60.6-79.8C976.1,581,894,504.5,618,504.5c-2.6-73.2-13.7-188.7-55.2-188.5
		c-34.5,0.1-44.5,127.2-47.5,197.4c-148.8,22.4-281.2,83-281.1,142.7c0,48.7,106.5,171.7,278.8,246.5c2.9,55.2,13.5,93.1,62.5,92.8
		c35.5,0,47.7-26.1,51.4-53.6c55.7,14.2,116.1,22.4,180.2,22.3C1057,963.3,1257.6,829.8,1257,646.7z M511.7,834
		c-148-52.3-248.4-135.2-248.6-162.8c-0.1-42.8,129.9-59,250-65C512.3,673.3,511.6,769.5,511.7,834z"/>
	<path class="st2" d="M352,70.8c51.1,0,104.6,5.1,159.2,15.1c52,9.6,105.2,23.7,158.3,42C770,162.6,869.8,212.3,958,271.7
		c85.9,57.8,158.1,122.8,208.9,188c51.9,66.7,79.4,131.3,79.6,187c0.1,42.7-11.1,83.6-33.4,121.3c-21.6,36.6-52.9,69.2-93,97
		c-81.8,56.7-192.9,88.1-312.9,88.4l-1.4,0c-59.8,0-119-7.4-176.1-22l-13,8.8c-5.3,39.9-25.9,44.5-41,44.5l-0.1,0l-0.6,0
		c-19,0-31-6.3-38.8-20.4c-7.1-12.7-10.9-32-12.5-62.5l-6.3-9.1c-75.8-32.9-147.2-79.4-200.9-131c-49.4-47.4-71.5-87.3-71.5-105.9
		c0-23.6,28.7-51.3,78.8-75.9c25.3-12.4,54.9-23.7,88-33.4c33.5-9.8,69-17.6,105.3-23l8.9-9.9c1.4-34.2,4.6-83.5,11.8-123.6
		c3.8-21.2,8.2-37.7,13.3-48.9c4.9-10.9,9.4-14.8,12-14.8l0.1,0c12.1,0,23.7,21.3,31.8,58.6c8.4,38.6,11.6,86.5,12.7,119.8L618,515
		c64.9,0,122.3,4.3,170.6,12.8c43,7.6,79.1,18.5,107.4,32.5c24.4,12.1,42.8,26.4,54.7,42.4c10.1,13.6,15.2,28.2,15.2,43.4
		c0.1,21.1-12.4,38.1-22.9,48.7c-11.8,11.9-24.3,18.9-28.1,20.5c-5.2-0.3-10.5-0.5-15.6-0.7c-8.5-0.3-16.5-0.6-23.1-1.4
		c-5.4-0.7-8.1-1.6-9.4-2.2c1.1-4.7,7.7-11,13.5-16.5c9.7-9.3,20.7-19.8,20.7-34.3l0-0.1c-0.1-10.2-8.9-19.1-27.7-28.1
		c-14.1-6.7-33.7-13.4-56.8-19.5C767,599.7,709.7,592,663.2,592c-0.5,0-1.1,0-1.5,0c-12.6,0-26.9,0.1-42.3,0.4l-10.3,10.7
		c1.4,76.8,5,201.7,7,262.3l8.5,10c46.6,9,92.9,13.5,137.6,13.5l1.7,0c41.8-0.1,149.2-4.8,241.9-45.3c43.5-19,77.6-43.4,101.6-72.6
		c28-34.1,42.2-74.7,42-120.8c-0.1-30.6-7.5-62.7-22-95.2c-13.8-30.9-34.1-62.4-60.2-93.6c-50.2-59.9-122.1-118.6-208.1-170
		c-85.9-51.3-184.1-94.2-284-124c-51.9-15.5-104.1-27.4-155.3-35.5c-53.4-8.4-105.9-12.7-156-12.7c-0.8,0-1.6,0-2.4,0
		c-15.5,0.1-55.2,0.7-90.2,4.5c-16.9,1.8-30.2,4.2-39.7,7.1c-5.7,1.7-23.1,6.9-23.1,21c0,14.2,11.4,19.8,18.2,23.1
		c1.8,0.9,5.1,2.5,6.1,3.5c-2.1,1-8,2.6-24.4,2.6l-0.1,0c-0.4,0-0.8,0-1.3,0c-17,0-28.2-2.6-33.3-7.9c-1.4-1.5-3.4-4.1-3.2-9.6
		l0-0.2c0-21.9,25.3-52.2,54.1-64.9c34.6-14.6,111.6-24.8,206-27.4C337.6,70.9,344.8,70.8,352,70.8 M508.2,843.9l14-9.9
		c-0.1-67.4,0.7-165.2,1.5-227.6l-11-10.6c-72.1,3.6-129.9,10-171.8,18.9c-26.4,5.6-46.3,12.2-60.6,20c-18.4,10-27.6,22.3-27.6,36.7
		c0,9.9,6.9,21.9,20.9,36.9c12.7,13.5,30.8,28.6,52.4,43.8C376.7,787.6,441.4,820.3,508.2,843.9 M352,60.3c-7.3,0-14.5,0.1-21.7,0.3
		c-93.9,2.6-172.8,12.6-209.9,28.3c-31.5,13.8-60.5,47.2-60.5,74.5c-0.6,25.4,28.4,28.2,47,28.2c0.5,0,0.9,0,1.3,0
		c18.5,0,35.4-1.6,35.2-12.4c0-15.3-24.6-12.1-24.6-27.4c0-17.7,95.1-21.8,142.6-22c0.8,0,1.6,0,2.4,0
		c406.9,0,874.4,281.6,875.1,520.5c0.5,186-241.7,227.8-375.1,228.1c-0.6,0-1.1,0-1.7,0c-46.9,0-92.3-5-135.6-13.3
		c-2-59.2-5.5-183.6-7-262.2c15.4-0.2,29.7-0.4,42.1-0.4c0.5,0,1,0,1.5,0c98.8,0,227.1,34.8,227.3,57.8c0,19.7-34.4,33.3-34.4,52.1
		c0.1,14.1,31.9,11.6,59.6,13.5c0,0,0.1,0,0.1,0c5.5,0,60.6-31,60.5-79.8C976.1,581,894,504.5,618,504.5
		c-2.6-73.1-13.7-188.5-55.1-188.5c0,0-0.1,0-0.1,0c-34.5,0.1-44.5,127.2-47.5,197.4c-148.8,22.4-281.2,83-281.1,142.7
		c0,48.7,106.5,171.7,278.8,246.5c2.9,54.9,13.4,92.8,61.8,92.8c0.2,0,0.5,0,0.7,0c35.5,0,47.7-26.1,51.4-53.6
		c55.3,14.1,115.3,22.3,178.7,22.3c0.5,0,0.9,0,1.4,0c249.9-0.7,450.5-134.3,449.9-317.4C1256.4,405.4,777.7,60.3,352,60.3L352,60.3
		z M511.7,834c-148-52.3-248.4-135.2-248.6-162.8c-0.1-42.8,129.9-59,250-65C512.3,673.3,511.6,769.5,511.7,834L511.7,834z"/>
</g>
<g>
	
		<linearGradient id="SVGID_00000053505133809497803550000014469962954646088612_" gradientUnits="userSpaceOnUse" x1="1343.4037" y1="500.6829" x2="1343.4037" y2="891.7149">
		<stop  offset="0" style="stop-color:#FFFFFF"/>
		<stop  offset="7.576791e-02" style="stop-color:#FBFFFE"/>
		<stop  offset="0.1528" style="stop-color:#EFFFFB"/>
		<stop  offset="0.2305" style="stop-color:#DAFFF6"/>
		<stop  offset="0.3087" style="stop-color:#BEFFEF"/>
		<stop  offset="0.3872" style="stop-color:#99FFE6"/>
		<stop  offset="0.4649" style="stop-color:#6DFFDC"/>
		<stop  offset="0.5304" style="stop-color:#41FFD1"/>
	</linearGradient>
	<path style="fill:url(#SVGID_00000053505133809497803550000014469962954646088612_);" d="M1392.5,769
		c-5.3-224.9-20.6-268.3-53.6-268.3c-42.2,0.2-43.3,170.4-44.7,232.4c-3.1,141.8,18.1,158.9,55.8,158.6
		C1383.8,891.6,1395.4,887.7,1392.5,769z"/>
	<path class="st2" d="M1338.9,511.2c5.8,0,9.7,1.9,13.4,6.4c5.3,6.5,9.8,18.3,13.5,35.1c8.6,38.7,13.5,105.5,16.1,216.5
		c1.6,66.2-1.5,98.3-10.4,107.5c-3.7,3.8-9.6,4.4-21.7,4.5l-0.7,0c-12.4,0-19.8-2.3-25.3-7.9c-14.9-15.2-21-59.7-19.3-140
		c0.1-3.2,0.1-6.6,0.2-10.3c0.7-33.4,1.8-89.2,7.6-135.6c3.2-25.1,7.4-44.5,12.5-57.8C1329.4,518.1,1334.6,511.2,1338.9,511.2
		 M1338.9,500.7c-42.2,0.2-43.3,170.4-44.7,232.4c-3,140.9,17.8,158.6,55,158.6c0.3,0,0.5,0,0.8,0c33.8-0.1,45.4-4,42.5-122.8
		C1387.2,544,1371.9,500.7,1338.9,500.7L1338.9,500.7z"/>
</g>
<g>
	<path class="st2" d="M1341.7,437.2c61.2,1.1,152.7-58.9,179.3-118.1c8.7,4.9,18.2,8.1,28.1,8.9c23.4,4.2,48.3-1.6,66.3-17.4
		c17.4-15.4,26.4-38.6,24.8-61.7c-1.2-19.6-8.9-39-22.6-53c-24.1-24.5-52.4-32.9-76.5-30.1c-24.4,2.8-45.9,16.9-58.3,38.2
		c-5.5,9.5-8.2,20.6-8.7,31.6c-0.4,0-0.7-0.1-1.1-0.1c-15.4-14.9-37.9-31.6-70.7-33.4c12.5-13.5,19.9-31.5,19.1-49.9
		c-1.1-23-14.7-43.7-33.8-56.1c-35.7-23.1-88.2-16.9-114.9,17.4c-14.4,18.6-18.7,43.3-10.2,65.6c7.7,20.2,24.8,35.4,44.8,43.2
		c-60.5,29.4-96.6,83.7-96.4,118C1211.1,375,1237,435.3,1341.7,437.2z M1453.6,272.7c24.7-0.1,29,19.5,29,27
		c0.1,45.3-93.1,82.5-133.3,82.6c-16.6,0-30.7-2.2-42.5-5.8C1338.8,340.6,1415.8,272.8,1453.6,272.7z M1354.5,261.4
		c-34.5,20.2-69.8,48.7-93.5,77C1251.2,309,1291.1,272,1354.5,261.4z"/>
	<path class="st2" d="M1339.8,92.8c15.4,0,30,4.2,42.2,12.1c17.3,11.2,28.1,29,29,47.7c0.7,15-5.2,30.4-16.3,42.3l7.1,17.6
		c31,1.7,51.4,18.2,64,30.5l7.3,3c-0.6,0-1.1-0.1-1.2-0.1c0.4,0.1,1.2,0.2,2.3,0.2l10.5-10c0.4-10,3-19.3,7.3-26.8
		c5.2-9,12.6-16.8,21.3-22.5c8.7-5.7,18.7-9.3,29.1-10.5c2.5-0.3,5.2-0.4,7.8-0.4c21.2,0,42.6,9.8,60,27.5
		c11.4,11.6,18.5,28.4,19.7,46.3l0,0.1c1.4,20.2-6.6,40-21.3,53.1c-11.8,10.4-27.6,16.1-44.6,16.1c-4.3,0-8.7-0.4-13-1.1l-0.9-0.1
		c-8.1-0.7-16.2-3.3-23.9-7.6l-14.7,4.9c-5.9,13.2-15.4,26.7-28.3,40.3c-12.3,13-27.4,25.5-43.7,36.3
		c-33.3,22.1-69.3,35.3-96.1,35.3c-0.5,0-1,0-1.5,0c-23.3-0.4-43.9-3.9-61-10.4c-14.5-5.5-26.7-13.1-36.3-22.7
		c-20.8-20.8-23.1-44.3-23.1-53.4c-0.1-15,8.7-35.3,23.3-54.4c17-22.1,40.9-41.3,67.2-54.1l-0.8-19.2c-18.4-7.2-32.6-20.8-38.8-37.2
		c-7.1-18.5-3.9-39.2,8.6-55.4C1294.3,102.9,1316.2,92.8,1339.8,92.8 M1269.1,345.2c22.3-26.5,56.2-54.5,90.8-74.7l-7-19.4
		c-44,7.3-80.9,27.7-96.3,53.3c-7.5,12.5-9.4,25.4-5.5,37.4L1269.1,345.2 M1349.3,392.9L1349.3,392.9c23-0.1,57.8-10.4,86.6-25.6
		c16.3-8.6,29.5-18.2,39.1-28.3c12-12.6,18-25.8,18-39.2c0-2.9-0.5-13.1-7.1-22.4c-4.9-6.9-14.4-15.1-32.1-15.1c0,0,0,0,0,0l-0.3,0
		c-19.3,0.1-46.8,13.7-81.9,40.7c-31,23.8-58.5,50.8-72.6,66.8l4.8,17C1317.4,390.8,1332.7,392.9,1349.3,392.9 M1339.8,82.3
		c-25.5,0-51,10.5-67,31.1c-14.4,18.6-18.7,43.3-10.2,65.6c7.7,20.2,24.8,35.4,44.8,43.2c-60.5,29.4-96.6,83.7-96.4,118
		c0.1,34.8,26.1,95.1,130.7,96.9c0.6,0,1.1,0,1.7,0c61.2,0,151.3-59.4,177.6-118.1c8.7,4.9,18.2,8.1,28.1,8.9
		c4.9,0.9,9.9,1.3,14.8,1.3c18.7,0,37.3-6.2,51.5-18.7c17.4-15.4,26.4-38.6,24.8-61.7c-1.2-19.6-8.9-39-22.6-53
		c-21.2-21.5-45.6-30.6-67.5-30.6c-3,0-6,0.2-9,0.5c-24.4,2.8-45.9,16.9-58.3,38.2c-5.5,9.5-8.2,20.6-8.7,31.6
		c-0.4,0-0.7-0.1-1.1-0.1c-15.4-14.9-37.9-31.6-70.7-33.4c12.5-13.5,19.9-31.5,19.1-49.9c-1.1-23-14.7-43.7-33.8-56.1
		C1373.5,86.9,1356.6,82.3,1339.8,82.3L1339.8,82.3z M1261,338.4c-9.8-29.4,30.1-66.5,93.5-77C1320,281.6,1284.8,310.1,1261,338.4
		L1261,338.4z M1349.3,382.4c-16.6,0-30.7-2.2-42.5-5.8c31.9-36,108.9-103.8,146.7-103.9c0.1,0,0.2,0,0.2,0
		c24.5,0,28.8,19.5,28.8,27C1482.7,345.1,1389.5,382.3,1349.3,382.4L1349.3,382.4z"/>
</g>
<g>
	
		<linearGradient id="SVGID_00000130630484815272047740000011239509688303813536_" gradientUnits="userSpaceOnUse" x1="1624.0887" y1="502.1086" x2="1624.0887" y2="896.3654">
		<stop  offset="0" style="stop-color:#FFFFFF"/>
		<stop  offset="5.633221e-02" style="stop-color:#FBFFFE"/>
		<stop  offset="0.1074" style="stop-color:#F0FFFB"/>
		<stop  offset="0.1565" style="stop-color:#DEFFF7"/>
		<stop  offset="0.2043" style="stop-color:#C4FFF1"/>
		<stop  offset="0.2513" style="stop-color:#A2FFE9"/>
		<stop  offset="0.2975" style="stop-color:#79FFDF"/>
		<stop  offset="0.3424" style="stop-color:#4AFFD3"/>
		<stop  offset="0.3498" style="stop-color:#41FFD1"/>
	</linearGradient>
	<path style="fill:url(#SVGID_00000130630484815272047740000011239509688303813536_);" d="M1415.6,628
		c0.2,81.8,121.3,61.8,201.7,69.9c65.6,6.7,145.3,28,145.3,49.4c0.1,48-173.4,67.2-209.2,67.4c-73.7,0.2-75.3-21.3-75.3-32.1
		c0-10.6,12.2-29.1,39.8-29.3c27.5,0,84.4,35.1,123.5,34.9c39.3-0.1,71.8-17.5,71.7-35c-0.1-32.1-130-47.6-170-47.6
		c-42.1,0.2-102.8,17.5-102.6,80.9c0.1,32.8,54,110.3,204.8,109.8c148.8-0.4,186.3-84.8,186.2-128.5
		c-0.2-105.9-100.6-117.9-188-125.3c-65.6-5.4-136.1-8.7-135.9-23.3c0.5-48.3,325.1-12.6,324.9-78.5
		c-0.2-39.4-101.1-38.9-158.1-38.7C1631.7,502.3,1415.2,507.4,1415.6,628z"/>
	<path class="st2" d="M1689.7,512.6c28,0,63.6,0.6,91.2,5.7c14.1,2.6,24.9,6,32,10.3c9.1,5.5,9.1,10.5,9.2,12.3
		c0,1.6,0,6.4-10.6,12.3c-8.5,4.7-21.5,8.7-38.7,12.1c-33.7,6.5-78.5,9.3-121.8,12.1c-37.9,2.4-73.7,4.7-100.9,9.3
		c-24.5,4.1-52.6,11.5-52.9,32.5c-0.2,16.3,21.9,21,42.6,24.3c20.9,3.2,48.4,5.4,77.6,7.6c8.3,0.6,16.9,1.3,25.2,2
		c45.6,3.9,89.3,8.7,123.1,24.8c17.8,8.5,30.8,19.2,39.9,32.7c10.3,15.4,15.4,34.2,15.4,57.4c0,9.5-2.3,42.8-34,72.9
		c-14.1,13.5-32.1,24.1-53.3,31.6c-25,8.9-54.8,13.4-88.4,13.5l-1.4,0c-43.7,0-105.4-7-151.6-40.6c-13.6-9.9-24.7-21.4-32.1-33.3
		c-8.3-13.2-9.2-22.2-9.2-25.4c-0.1-24.4,10.1-42.9,30.3-55.1c15.9-9.6,38.4-15.1,61.8-15.3c17.8,0,59.9,3.6,97.8,11.6
		c20,4.2,35.7,9,46.8,14.1c12.2,5.7,14.9,10.2,14.9,11.5c0,1.8-1.4,4.2-3.8,6.7c-4.6,4.7-12.4,9-22,12.2c-10.8,3.6-23,5.5-35.5,5.6
		l-0.3,0c-19.3,0-45.1-10.1-67.9-19c-21.8-8.5-40.6-15.9-55.2-15.9c-18.8,0.1-30.6,7.4-37.3,13.4c-8.1,7.4-13,17.3-13,26.3
		c0,5.1,0,18.5,14.3,28.6c13.3,9.4,36.3,13.9,70.2,13.9l1.3,0c17.7-0.1,71.2-5,120.3-16.1c66.9-15.1,99.4-35.4,99.3-61.9
		c0-15.6-17.6-28.4-55.4-40.2c-27.9-8.8-65.1-16.1-99.3-19.6c-17.9-1.8-37.9-2.2-57.3-2.7c-34.5-0.8-70.2-1.6-96.2-9.7
		c-26.8-8.4-38.7-22.9-38.8-47.1c-0.1-24.8,9.9-45.2,30.5-62.4c17.6-14.7,42.9-26.6,75.1-35.5c56.1-15.5,118.6-17.3,142.8-17.4
		l0.2,0C1679.5,512.6,1684.5,512.6,1689.7,512.6 M1689.7,502.1c-5.4,0-10.5,0-15.3,0c-42.7,0.1-259.2,5.3-258.9,125.8
		c0.2,81.8,121.3,61.8,201.7,69.9c65.6,6.7,145.3,28,145.3,49.4c0.1,48-173.4,67.2-209.2,67.4c-0.4,0-0.8,0-1.2,0
		c-72.5,0-74-21.4-74-32.1c0-10.6,12.2-29.1,39.8-29.3c27.4,0,84.1,34.9,123.1,34.9c0.1,0,0.3,0,0.4,0c39.3-0.1,71.8-17.5,71.7-35
		c-0.1-32.1-130-47.6-170-47.6c-42.1,0.2-102.8,17.5-102.6,80.9c0.1,32.7,53.6,109.8,203.3,109.8c0.5,0,0.9,0,1.4,0
		c148.8-0.4,186.3-84.8,186.2-128.5c-0.2-105.9-100.6-117.9-188-125.3c-65.6-5.4-136.1-8.7-135.9-23.3
		c0.5-48.3,325.1-12.6,324.9-78.5C1832.4,504.7,1747.8,502.1,1689.7,502.1L1689.7,502.1z"/>
</g>
<g>
	
		<linearGradient id="SVGID_00000064341086026972338730000017245546932261802934_" gradientUnits="userSpaceOnUse" x1="2027.9681" y1="449.6471" x2="2027.9681" y2="891.1007">
		<stop  offset="0" style="stop-color:#FFFFFF"/>
		<stop  offset="0.155" style="stop-color:#FCFFFE"/>
		<stop  offset="0.2577" style="stop-color:#F3FFFC"/>
		<stop  offset="0.3453" style="stop-color:#E4FFF9"/>
		<stop  offset="0.4243" style="stop-color:#CFFFF3"/>
		<stop  offset="0.4977" style="stop-color:#B4FFED"/>
		<stop  offset="0.5668" style="stop-color:#92FFE5"/>
		<stop  offset="0.6314" style="stop-color:#6AFFDB"/>
		<stop  offset="0.6882" style="stop-color:#41FFD1"/>
	</linearGradient>
	<path style="fill:url(#SVGID_00000064341086026972338730000017245546932261802934_);" d="M1896.3,891.1c59.2-0.1,28.6-218,52.4-218
		c17.5,0,114.1,199.1,167.8,198.8c58.3-0.1,92.4-85.3,92.4-140.5c-0.6-126.8-84.7-281.9-133.6-281.7c-12.2,0-14.6,13.1-14.6,26.8
		c0.2,41.4,57.4,185.4,57.5,240.7c0,11.4-0.9,31.9-9.8,34.4c-13.8,3.9-133.4-214.3-183.2-218c-51.3-3.7-78.5,214.3-78.2,267.9
		C1847.1,855.2,1856.4,891.2,1896.3,891.1z"/>
	<path class="st2" d="M2075.3,449.6l0,10.5c8.5,0,20.7,8.3,33.6,22.7c14.2,15.9,28.7,38.3,41.9,64.8c13.8,27.7,25.5,58.5,33.7,89
		c9.1,33.6,13.7,65.5,13.9,94.8c0,27.6-8.8,60.4-23,85.7c-7.7,13.8-16.6,24.6-26.3,32.2c-10.2,8-21.2,12-32.6,12l-0.1,0
		c-3.8,0-10.7-1.9-21.7-11.1c-8.9-7.3-19.1-18.3-30.4-32.6c-21.5-27-43.1-60.8-62.2-90.7c-33.9-53.1-42.2-64.4-53.3-64.4
		c-3.9,0-11.2,1.6-15.3,12.5c-1.7,4.4-2.9,10.1-3.8,18.1c-1.6,13.7-2.2,32.5-2.8,52.4c-1,31.5-2.1,67.1-7.4,94.6
		c-2.7,14-6.2,24.6-10.5,31.5c-4.9,7.9-9.5,8.8-12.5,8.8l-0.2,0c-14.7,0-23.9-5.7-29.9-18.6c-5.9-12.7-8.7-31.9-8.7-60.5
		c-0.1-24.2,5.5-79.7,15-130.6c15.9-85,33.3-112.8,42.2-121.7c3.4-3.4,6.5-5.1,9.3-5.1c0.2,0,0.4,0,0.5,0c2.8,0.2,9.4,2.2,21.8,13.3
		c9.3,8.4,20.4,20.6,33.1,36.3c23.7,29.7,48.5,66.3,70.4,98.7c40,59.2,48,69.7,58.4,69.7c1.1,0,2.2-0.1,3.2-0.4
		c15.5-4.3,17.5-26,17.5-44.5c-0.1-31.3-16.5-86.3-32.4-139.5c-12.3-41.1-25-83.7-25.1-101.3c0-6.7,0.6-11.5,1.9-14.4
		c0.8-1.9,1.1-1.9,2.2-1.9L2075.3,449.6 M2075.3,449.6C2075.3,449.6,2075.3,449.6,2075.3,449.6c-12.3,0-14.6,13.1-14.6,26.8
		c0.2,41.4,57.4,185.4,57.5,240.7c0,11.4-0.9,31.9-9.8,34.4c-0.1,0-0.3,0.1-0.4,0.1c-15.5,0-133.4-214.4-182.8-218
		c-0.4,0-0.9,0-1.3,0c-50.5,0-77.2,214.8-76.9,268c0.1,53.6,9.4,89.6,49.1,89.6c0.1,0,0.1,0,0.2,0c59.2-0.1,28.6-218,52.4-218
		c17.5,0,113.9,198.8,167.6,198.8c0.1,0,0.1,0,0.1,0c58.3-0.1,92.4-85.3,92.4-140.5C2208.3,604.6,2124.3,449.7,2075.3,449.6
		L2075.3,449.6z"/>
</g>
<g>
	
		<linearGradient id="SVGID_00000134214538829077029250000017309776362612163489_" gradientUnits="userSpaceOnUse" x1="2394.7568" y1="502.474" x2="2394.7568" y2="919.9099">
		<stop  offset="0" style="stop-color:#FFFFFF"/>
		<stop  offset="6.126887e-02" style="stop-color:#FBFFFE"/>
		<stop  offset="0.1269" style="stop-color:#EEFFFB"/>
		<stop  offset="0.1946" style="stop-color:#D8FFF6"/>
		<stop  offset="0.2637" style="stop-color:#BAFFEE"/>
		<stop  offset="0.3338" style="stop-color:#94FFE5"/>
		<stop  offset="0.4039" style="stop-color:#65FFDA"/>
		<stop  offset="0.4516" style="stop-color:#41FFD1"/>
	</linearGradient>
	<path style="fill:url(#SVGID_00000134214538829077029250000017309776362612163489_);" d="M2220.5,815.2
		c0.1,33.2,24.6,106.8,92.4,104.6c107.1-3.5,203.2-78,204.5-91.1c2.2-19.8-27-42.8-47.7-42.8c-20.6,0-136.5,25.7-144.2,18.8
		c-7.5-6.9,6.7-73.7,21.4-78.5c14.6-4.7,104.9-3.2,119.7-4c42.1-2.4,34.1-59.2,8.1-61.3c-13-1.2-95-1.3-99.7-8.9
		c-4.3-7.5,1.5-45.4,10.6-49.2c18.6-7.7,143.1-11.1,152.5-13.5c15.4-3.9,26.8-12.1,30.6-25.3c3.9-13.1-43.2-67.6-101.3-61.1
		c-99.7,10.8-229.2,10.3-229.1,42.8c0,30.6,60.6,42.8,62.2,51.2c1.6,8.6-7.8,40.1-11.4,49.9c-3.7,10.8-46.8,14-49.7,43.8
		c-0.6,7,10.8,17.6,8.6,26.1C2241.1,742,2220.5,793.7,2220.5,815.2z"/>
	<path class="st2" d="M2477,513c26.2,0,47.4,13.4,57.7,21.4c16.2,12.5,22.7,24.2,23.6,27.6c-2.7,8.2-10.4,14-22.7,17.2
		c-3.4,0.6-21.6,1.6-39.3,2.6c-57.1,3.2-101.9,6-114.7,11.3c-5.7,2.4-10,8-13.3,17.8c-3.8,11.1-8.4,36-2.5,46.3l0.2,0.4
		c5.1,8.1,17.3,10.8,88.1,13c9,0.3,16.7,0.5,19.6,0.8l0.2,0c6.4,0.5,12,10,11.9,20.3c-0.1,7.1-2.7,19.1-19.7,20.1
		c-4.1,0.2-15.2,0.3-28.1,0.3c-46.7,0.2-83.2,0.7-94.2,4.2l-0.1,0c-6.9,2.2-12.6,8.9-17.8,21c-3.6,8.2-6.9,18.9-9.3,30
		c-1.9,8.9-3.2,17.5-3.5,24.3c-0.5,10.7,1.1,16.9,5.4,20.8l0.1,0.1c3.8,3.4,8.9,3.8,13.9,3.8c15.6,0,49.4-5.9,82-11.6
		c23.6-4.1,48-8.4,55.3-8.4c9.1,0,22.1,6.9,30.3,16c4.5,5,7,10.1,7,14.1c-3.7,5.7-24.8,24.8-61.8,44.5
		c-30.9,16.5-79,36.4-132.7,38.2c-0.9,0-1.8,0-2.6,0c-13.3,0-25.4-3.4-36-10.1c-9.3-5.9-17.5-14.4-24.4-25.1
		c-12.7-19.9-18.5-43.9-18.5-58.9c0-13,9.6-41.8,17.3-64.9c3.9-11.6,7.5-22.5,9.7-30.8l0-0.1c2.3-8.7-2-16.5-5.5-22.8
		c-1-1.7-2.4-4.3-2.8-5.5c0.7-5.3,3.4-9.7,8.5-13.8c5.5-4.4,12.8-7.7,19.3-10.6c9.9-4.5,18.5-8.3,21.3-16.5l0,0
		c1.1-3.1,14.3-41.8,11.8-55.2l0-0.1c-1.6-8.1-9.5-11.7-22.7-17.7c-14.7-6.7-39.2-17.8-39.2-31.5c0-1.1,2.2-3.4,7.1-5.8
		c6.8-3.4,17.4-6.4,31.6-9c28.1-5.2,66-8,106-11c25-1.9,50.9-3.8,75-6.4C2471.4,513.1,2474.2,513,2477,513 M2477,502.5
		c-3.2,0-6.4,0.2-9.6,0.5c-99.7,10.8-229.2,10.3-229.1,42.8c0,30.6,60.6,42.8,62.2,51.2c1.6,8.6-7.8,40.1-11.4,49.9
		c-3.7,10.8-46.8,14-49.7,43.8c-0.6,7,10.8,17.6,8.6,26.1c-6.9,25.2-27.4,76.9-27.4,98.4c0.1,32.7,23.9,104.7,89.4,104.7
		c1,0,2,0,3,0c107.1-3.5,203.2-78,204.5-91.1c2.2-19.8-27-42.8-47.7-42.8c-18.1,0-110.5,20-137.3,20c-3.6,0-6-0.4-6.9-1.2
		c-7.5-6.9,6.7-73.7,21.4-78.5c14.6-4.7,104.9-3.2,119.7-4c42.1-2.4,34.1-59.2,8.1-61.3c-13-1.2-95-1.3-99.7-8.9
		c-4.3-7.5,1.5-45.4,10.6-49.2c18.6-7.7,143.1-11.1,152.5-13.5c15.4-3.9,26.8-12.1,30.6-25.3C2572.4,551.7,2530.6,502.5,2477,502.5
		L2477,502.5z"/>
</g>
<g>
	
		<linearGradient id="SVGID_00000023977047060145124120000010727053630675637415_" gradientUnits="userSpaceOnUse" x1="2718.2783" y1="491.9378" x2="2718.2783" y2="1254.2268">
		<stop  offset="0" style="stop-color:#FFFFFF"/>
		<stop  offset="8.315509e-02" style="stop-color:#FCFFFE"/>
		<stop  offset="0.1382" style="stop-color:#F3FFFC"/>
		<stop  offset="0.1851" style="stop-color:#E4FFF9"/>
		<stop  offset="0.2274" style="stop-color:#CFFFF3"/>
		<stop  offset="0.2666" style="stop-color:#B4FFED"/>
		<stop  offset="0.3036" style="stop-color:#92FFE5"/>
		<stop  offset="0.3381" style="stop-color:#6AFFDB"/>
		<stop  offset="0.3686" style="stop-color:#41FFD1"/>
	</linearGradient>
	<path style="fill:url(#SVGID_00000023977047060145124120000010727053630675637415_);" d="M2857.9,526.8
		c-58.3,3.5-170.5,127.3-236,210.9c-4-8.6-6.5-16.8-6.6-24.5c-0.1-35.2,66.5-141,78.8-167.4c13-27.7-1.6-64.1-17.9-51
		c-31.2,25.7-131.1,141.8-130.7,250.2c0,24.8,6.6,55.2,20.6,82.9c-22.4,72.7-77,234.1-75.3,332.3c1,50.5,52.3,100.4,83,93.6
		c11.6-2.6,14.2-68.9,29.6-114.1c21.7-64.7,56.2-183,68.2-233.5c135.5,9.5,274.3-129.4,274-241.5
		C2945.3,552.6,2879,525.5,2857.9,526.8z M2717.5,803.9c49-84.9,120.4-197.8,146.7-197.3c18.4,0.2,25.3,18.6,25.5,46.4
		C2890,736.1,2789.4,805.1,2717.5,803.9z"/>
	<path class="st2" d="M2683.6,502.4L2683.6,502.4L2683.6,502.4 M2683.1,502.7c1.3,1.3,3.9,5.3,5,12.4c1.5,8.8,0.2,18.3-3.4,26.1
		c-3.1,6.6-10.1,19.1-18.3,33.7c-32.4,57.7-61.6,111.6-61.5,138.2l0,0.1c0.1,8.8,2.6,18.2,7.6,28.8l17.8,2
		c38.9-49.7,82.5-98.6,119.7-134.4c22.9-22,43.7-39.4,61.7-51.6c19.1-13,35.3-20.2,46.9-20.9c0.2,0,0.5,0,0.8,0
		c7.5,0,26.3,5.1,43.7,24.4c9.4,10.5,16.9,23.5,22.3,38.7c6.5,18.4,9.8,40.1,9.9,64.3c0.1,47.5-27.3,103.4-73.2,149.5
		c-24.4,24.5-52.9,44.8-82.4,59c-31.8,15.2-63.6,23-94.6,23c-4.2,0-8.4-0.1-12.6-0.4l-11,8c-12,50.5-46.2,167.8-67.9,232.6
		c-7.2,21.1-11.5,45.8-15.4,67.6c-1.9,10.5-3.6,20.5-5.4,28.2c-1.6,6.7-2.8,10.1-3.5,11.7c-0.4,0-0.8,0-1.2,0
		c-11.9,0-28.3-10.1-41.9-25.7c-15.3-17.7-24.3-38.9-24.7-58.2c-0.6-37.1,7.2-88.7,23.3-153.3c13.8-55.3,30.9-109.9,43.5-149.8
		c2.9-9.3,5.7-18.2,8.1-25.9l-0.7-7.8c-12.4-24.5-19.4-53-19.4-78.2c-0.2-55.9,28.1-112.7,51.9-150.4c28.6-45.4,60.4-79.6,74.9-91.5
		C2683,502.8,2683,502.8,2683.1,502.7 M2719.4,814.4c21.9,0,46.2-5.8,70.4-16.8c24-11,46.3-26.4,64.4-44.5
		c14.2-14.2,25.3-29.6,33.2-45.8c8.6-17.8,13-36.1,12.9-54.3c-0.1-16.4-2.4-28.9-7-38.2c-6-12-16-18.5-28.8-18.7c-0.1,0-0.2,0-0.3,0
		c-11.5,0-29.3,8.5-73.5,71.3c-30.1,42.8-61.3,95-82.2,131.2l8.9,15.7C2718.1,814.4,2718.7,814.4,2719.4,814.4 M2683.2,491.9
		c-2.2,0-4.5,0.9-6.9,2.7c-31.2,25.7-131.1,141.8-130.7,250.2c0,24.8,6.6,55.2,20.6,82.9c-22.4,72.7-77,234.1-75.3,332.3
		c0.9,47.4,46.2,94.2,77.1,94.2c2,0,4-0.2,5.9-0.6c11.6-2.6,14.2-68.9,29.6-114.1c21.7-64.7,56.2-183,68.2-233.5
		c4.4,0.3,8.9,0.5,13.3,0.5c131.1,0,260.9-133.5,260.7-241.9c-0.4-109.6-63.9-137.8-86.4-137.8c-0.5,0-1,0-1.4,0
		c-58.3,3.5-170.5,127.3-236,210.9c-4-8.6-6.5-16.8-6.6-24.5c-0.1-35.2,66.5-141,78.8-167.4C2705.3,522.1,2696.2,491.9,2683.2,491.9
		L2683.2,491.9z M2719.4,803.9c-0.6,0-1.3,0-1.9,0c48.8-84.8,120.1-197.3,146.6-197.3c0.1,0,0.1,0,0.2,0
		c18.4,0.2,25.3,18.6,25.5,46.4C2890,735.3,2791.1,803.9,2719.4,803.9L2719.4,803.9z"/>
</g>
<g>
	<g>
		<path class="st2" d="M2398.5,1127.7c-59.8-6.2-120.4,2.9-144.8,7.1c-0.9,0.1-1.6,0.2-2.2,0.4c-0.2-20.4-2.4-140.3-2.6-145.6
			c-0.1-11-9.3-19.7-20.2-19.7c-11,0-20.1,9.3-19.9,20.4c0.9,47.7,2.6,139.9,2.6,147.2c0,30.6,23.7,41.5,49.1,37
			c22.3-4,78.3-12.6,133.9-6.9c11,1.2,20.9-6.9,22-17.9C2417.6,1138.7,2409.5,1128.8,2398.5,1127.7z"/>
	</g>
	<g>
		<path class="st2" d="M2149.8,1114.6c-47.4,9.1-80.8,13.2-98.9,11.5c-0.9-4.9-3.2-24.1-4.2-31.7c29.4-1.1,62.7-2.8,90.3-8.2
			c10.9-2.1,17-10.9,16.6-19.5c-0.2-11.1-10.4-19.9-19.3-18.5c-18.4,3.2-59.6,6.1-92.3,7.3c-1.8-16.5-2.2-21.1-3.1-31.5
			c5.5-0.1,11.6,0,14.4,0.1c16.2,0.1,92.3-2.6,99.9-5.3c10.5-3.7,16-15.1,12.4-25.6c-3.3-9.3-12.7-14.8-22.3-13.1
			c-7.3,0.7-64.6,4.2-89.2,3.7c-24.2-0.4-38.4-0.2-48.3,9.5c-3.5,3.4-7.8,9.7-7.8,19.1c0,0.6,2.4,37.8,6.6,74.2c0,0.4,0,0.6,0,0.9
			c0,1.8,0.4,3.5,0.7,5.1c3.5,28.8,8.3,55.8,14.1,62.5c6.6,7.6,22.4,11.4,43.2,9.4c43.2-4.2,86.5,0,106.6-13.5
			c9.1-6.1,11.6-19.8,6.2-29.5C2170,1112.1,2160.7,1112.5,2149.8,1114.6z"/>
	</g>
	<g>
		<path class="st2" d="M1959.4,983.6c-1.1-11-11.1-19-22.2-17.9c-11,1.2-19,11.1-17.7,22.2c3.5,32.6,9.4,88.7,12.6,124.1
			c-6.4-5.8-12.7-11.7-17-15.9l-2.9-2.8c-8-7.6-21.5-22-34.8-36c-51.4-54.5-56.7-60.2-71.8-55.7c-18.2,5.5-17.5,18.5-13.3,90.3
			c2.1,34.6,4.7,69.1,4.7,69.1c0.9,10.5,9.7,18.5,20.1,18.5c0.5,0,1,0,1.5,0c11.1-0.9,19.5-10.5,18.6-21.5
			c-2.4-31.6-4.7-65.5-5.9-91.2c5.9,6.2,11.9,12.6,17,18c14.2,14.9,27.5,29.1,36.2,37.5l2.9,2.8c33.4,31.9,53.1,49.6,72.7,40.8
			c4.7-2.2,15.3-8.9,14.6-26.8C1973.6,1115.1,1960,989,1959.4,983.6z"/>
	</g>
	<g>
		<path class="st2" d="M1742.6,952.8c-11.1-1.2-21.1,6.5-22.4,17.5c-1.1,9.3-5.9,108.6-6.4,141.8c-12-15.3-27.4-35.7-39.2-51.5
			c-12.9-17.3-25.1-33.7-34.8-45.9c-15.1-19.3-25-32.1-41-25.3c-14.6,5.9-16.3,11.9-15.9,100.4c0.4,81,2,85.8,2.4,87.3
			c2.9,8.4,10.9,14.3,22.3,13.2c11.5-1.2,17.7-12.6,16.8-21.8c-0.6-10.2-1.6-67.4-1.2-109.5c6.5,8.7,13.2,17.7,19.1,25.7
			c48.5,65,60.1,79.1,69.6,83.8c8.6,4.3,17.7,4,25.3-0.6c16.3-9.9,16.5-38.3,16.8-72.7c0.5-33.8,5.1-113.1,6-119.9
			C1761.5,964.2,1753.6,954.1,1742.6,952.8z"/>
	</g>
	<g>
		<path class="st2" d="M1322.3,1032.1c-0.9,0.1-2,0.2-3.2,0.6l-2.4-54.5c-0.5-11.1-9.9-19.6-20.9-19.2c-11,0.5-19.6,9.9-19.1,20.9
			l2.8,63.3c-17.5,4.9-37.8,10.9-56.7,16.4v-61.9c0-11.1-8.9-20.1-20.1-20.1c-11.1,0-20.1,8.9-20.1,20.1v73.9
			c-7.6,2.3-13.7,4.2-17.4,5.3c-10.6,3.3-16.6,14.4-13.3,25.1c2.6,8.7,10.5,14.2,19.2,14.2c1.8,0,3.8-0.2,5.8-0.9
			c1.8-0.5,3.8-1.1,5.8-1.7v37.3c0,11,8.9,20.1,20.1,20.1c11.1,0,20.1-9.1,20.1-20.1v-49.3c20.3-6.1,40.9-12.1,58.4-17.1l3.4,76.4
			c0.5,10.8,9.4,19.1,20.1,19.1c0.4,0,0.6,0,0.9,0c11.1-0.5,19.7-9.8,19.2-20.9l-3.8-85.5c17.9-2.8,25.1-11.6,24.2-24.6
			C1344.4,1037.8,1333.2,1030.4,1322.3,1032.1z"/>
	</g>
	<g>
		<path class="st2" d="M1121.5,1110.3c-23.5,8-138.7,14.4-167.8,13c-13.7-0.7-29.9-8.4-32.2-15.3c-1.2-3.7,2-14.4,21.9-31.1
			c60.8-50.9,93.5-59.5,115.3-61.2c4.8-0.4,7.1,0.4,8,0.9c3.1,9.5,13.1,15.4,23.3,13.3c10.8-2.3,17.7-13,15.4-23.9
			c-2.4-11.6-16-33-49.8-30.4c-27.7,2.2-68.4,12.2-137.8,70.4c-30.7,25.7-42.3,50.8-34.4,74.7c9.8,29.3,47.5,42.8,73.9,42.8
			c40.1,0,148-5.4,177.1-15.3c10.5-3.5,16.2-14.9,12.6-25.5C1143.4,1112.3,1132,1106.7,1121.5,1110.3z"/>
	</g>
	<g>
		<path class="st2" d="M1527.6,1072.7c2.6-4.4,3.4-9.7,2.1-15.1c-2.2-8.7-9.8-14.4-18.2-15.1c-46.4-84-56.5-83.7-67.2-83.3
			c-13.5,0.4-25.3,1-58,125.2c-9.9,3.8-16.4,6.4-17.4,6.7c-10.4,4-15.4,15.7-11.4,25.9c2.9,7.5,9.8,12.1,17.4,12.6
			c-2.3,9.4-4.8,19.2-7.2,29.7c-2.6,10.8,4.8,22.9,17.3,24.4c10.8,1.3,19.7-5.9,21.9-15.2c4.2-17.6,8.7-36.1,13.5-54.1
			c21.4-8.1,48.3-17.9,70.4-25.1c12.7,23.9,26.1,49.7,38.3,74c5,9.9,17,14,26.9,8.9c9.9-4.9,14-17,9.1-26.9
			C1550.7,1117.2,1538.4,1093.2,1527.6,1072.7z M1433,1067c5.8-20.4,11.1-38.4,15.8-51.6c6.2,10,13.8,23.3,22.3,38.3
			C1458.8,1057.7,1445.7,1062.3,1433,1067z"/>
	</g>
</g>
</svg>
